<svg width="40" height="40" viewBox="0 0 40 40" fill="none" xmlns="http://www.w3.org/2000/svg">
<path d="M26.6654 13.3334C29.3175 13.3334 31.8611 14.3869 33.7364 16.2623C35.6118 18.1377 36.6654 20.6812 36.6654 23.3334V35H29.9987V23.3334C29.9987 22.4493 29.6475 21.6015 29.0224 20.9764C28.3973 20.3512 27.5494 20 26.6654 20C25.7813 20 24.9335 20.3512 24.3083 20.9764C23.6832 21.6015 23.332 22.4493 23.332 23.3334V35H16.6654V23.3334C16.6654 20.6812 17.7189 18.1377 19.5943 16.2623C21.4697 14.3869 24.0132 13.3334 26.6654 13.3334Z" stroke="white" stroke-width="3" stroke-linecap="round" stroke-linejoin="round"/>
<path d="M9.9987 15H3.33203V35H9.9987V15Z" stroke="white" stroke-width="3" stroke-linecap="round" stroke-linejoin="round"/>
<path d="M6.66536 10C8.50631 10 9.9987 8.50766 9.9987 6.66671C9.9987 4.82576 8.50631 3.33337 6.66536 3.33337C4.82442 3.33337 3.33203 4.82576 3.33203 6.66671C3.33203 8.50766 4.82442 10 6.66536 10Z" stroke="white" stroke-width="3" stroke-linecap="round" stroke-linejoin="round"/>
</svg>
