<svg width="40" height="40" viewBox="0 0 40 40" fill="none" xmlns="http://www.w3.org/2000/svg">
<path d="M37.565 10.7C37.367 9.90898 36.9638 9.18425 36.3961 8.59897C35.8284 8.01369 35.1163 7.5886 34.3317 7.36663C31.465 6.66663 19.9983 6.66663 19.9983 6.66663C19.9983 6.66663 8.53168 6.66663 5.66502 7.43329C4.88043 7.65527 4.16831 8.08036 3.60059 8.66564C3.03288 9.25091 2.62966 9.97564 2.43168 10.7666C1.90704 13.6759 1.65041 16.6271 1.66502 19.5833C1.64631 22.5617 1.90296 25.5355 2.43168 28.4666C2.64995 29.233 3.06219 29.9302 3.62859 30.4908C4.19498 31.0513 4.89638 31.4563 5.66502 31.6666C8.53168 32.4333 19.9983 32.4333 19.9983 32.4333C19.9983 32.4333 31.465 32.4333 34.3317 31.6666C35.1163 31.4447 35.8284 31.0196 36.3961 30.4343C36.9638 29.849 37.367 29.1243 37.565 28.3333C38.0856 25.4459 38.3422 22.5172 38.3317 19.5833C38.3504 16.6049 38.0937 13.6311 37.565 10.7Z" stroke="white" stroke-width="3" stroke-linecap="round" stroke-linejoin="round"/>
<path d="M16.2483 25.0333L25.8317 19.5833L16.2483 14.1333V25.0333Z" stroke="white" stroke-width="3" stroke-linecap="round" stroke-linejoin="round"/>
</svg>
